<?xml version="1.0" encoding="UTF-8" standalone="no"?>
<svg
   width="1000"
   height="491.09509"
   viewBox="0 0 264.58332 129.93558"
   version="1.1"
   id="svg8"
   inkscape:version="1.3.2 (091e20e, 2023-11-25, custom)"
   sodipodi:docname="Ubisoft_1986-1990.svg"
   xmlns:inkscape="http://www.inkscape.org/namespaces/inkscape"
   xmlns:sodipodi="http://sodipodi.sourceforge.net/DTD/sodipodi-0.dtd"
   xmlns="http://www.w3.org/2000/svg"
   xmlns:svg="http://www.w3.org/2000/svg"
   xmlns:rdf="http://www.w3.org/1999/02/22-rdf-syntax-ns#"
   xmlns:cc="http://creativecommons.org/ns#"
   xmlns:dc="http://purl.org/dc/elements/1.1/">
  <defs
     id="defs2" />
  <sodipodi:namedview
     id="base"
     pagecolor="#ffffff"
     bordercolor="#666666"
     borderopacity="1.0"
     inkscape:pageopacity="0.0"
     inkscape:pageshadow="2"
     inkscape:zoom="0.71599998"
     inkscape:cx="500.00001"
     inkscape:cy="245.11174"
     inkscape:document-units="px"
     inkscape:current-layer="layer3"
     inkscape:document-rotation="0"
     showgrid="false"
     showguides="false"
     inkscape:window-width="1366"
     inkscape:window-height="705"
     inkscape:window-x="-8"
     inkscape:window-y="-8"
     inkscape:window-maximized="1"
     inkscape:showpageshadow="2"
     inkscape:pagecheckerboard="0"
     inkscape:deskcolor="#d1d1d1">
    <sodipodi:guide
       position="29.934189,8.0984848"
       orientation="0,875.80222"
       id="guide909"
       inkscape:locked="false" />
    <sodipodi:guide
       position="8.7675211,98.245821"
       orientation="0,875.80218"
       id="guide911"
       inkscape:locked="false" />
    <sodipodi:guide
       position="29.934188,113.0976"
       orientation="0,875.80222"
       id="guide913"
       inkscape:locked="false" />
    <sodipodi:guide
       position="8.7675211,-8.0762243"
       orientation="0,875.80218"
       id="guide915"
       inkscape:locked="false" />
  </sodipodi:namedview>
  <metadata
     id="metadata5">
    <rdf:RDF>
      <cc:Work
         rdf:about="">
        <dc:format>image/svg+xml</dc:format>
        <dc:type
           rdf:resource="http://purl.org/dc/dcmitype/StillImage" />
      </cc:Work>
    </rdf:RDF>
  </metadata>
  <g
     inkscape:groupmode="layer"
     id="layer3"
     inkscape:label="Layer 3">
    <path
       style="fill:#01a3da;fill-opacity:1;stroke:#000000;stroke-width:3.21773;stroke-miterlimit:4;stroke-dasharray:none;stroke-opacity:1"
       d="M 20.514816,1.6108811 1.6088647,17.141921 v 94.270309 l 15.8568403,16.91448 h 49.55248 L 84.33709,111.41416 49.273667,93.002424 34.671391,92.889757 89.858973,1.6089444 Z"
       id="path919"
       sodipodi:nodetypes="cccccccccc" />
    <path
       style="fill:#01a3da;fill-opacity:1;stroke:#000000;stroke-width:3.21773;stroke-miterlimit:4;stroke-dasharray:none;stroke-opacity:1"
       d="m 177.48216,1.6108811 -17.97052,15.5310409 6.48838,79.385019 -0.49244,31.799769 h 51.70693 L 233.34185,112.52024 200.47132,17.141921 194.0695,1.6108811 Z"
       id="path935"
       sodipodi:nodetypes="ccccccccc" />
    <path
       style="fill:#01a3da;fill-opacity:1;stroke:#000000;stroke-width:3.21773;stroke-miterlimit:4;stroke-dasharray:none;stroke-opacity:1"
       d="M 86.027038,128.32671 H 147.48656 L 164.54898,111.41223 111.44655,76.627355 85.72994,94.259733 Z"
       id="path931"
       sodipodi:nodetypes="cccccc" />
    <path
       style="fill:#d62785;fill-opacity:1;stroke:#000000;stroke-width:3.21773;stroke-miterlimit:4;stroke-dasharray:none;stroke-opacity:1"
       d="M 21.743997,1.6089444 V 94.543766 l 14.07996,16.870394 H 84.33709 L 100.92635,95.242526 V 1.6089444 Z"
       id="path917" />
    <path
       style="fill:#01a3da;fill-opacity:1;stroke:#000000;stroke-width:3.21773;stroke-miterlimit:4;stroke-dasharray:none;stroke-opacity:1"
       d="M 61.129837,1.6108811 V 59.913149"
       id="path921" />
    <path
       style="fill:#d62785;fill-opacity:1;stroke:#000000;stroke-width:3.21773;stroke-miterlimit:4;stroke-dasharray:none;stroke-opacity:1"
       d="M 100.92635,1.6089444 V 111.41223 h 63.62263 L 178.9998,96.997794 178.99933,59.913149 166.63826,47.725709 178.99933,31.533823 V 16.271389 L 164.72309,1.6108811 Z"
       id="path923"
       sodipodi:nodetypes="cccccccccc" />
    <path
       style="fill:#d62785;fill-opacity:1;stroke:#000000;stroke-width:3.21773;stroke-miterlimit:4;stroke-dasharray:none;stroke-opacity:1"
       d="m 142.26336,26.310634 h 16.01779"
       id="path925" />
    <path
       style="fill:#d62785;fill-opacity:1;stroke:#000000;stroke-width:3.21773;stroke-miterlimit:4;stroke-dasharray:none;stroke-opacity:1"
       d="m 142.26336,80.428752 h 16.01779"
       id="path927" />
    <path
       style="fill:#d62785;fill-opacity:1;stroke:#000000;stroke-width:3.21773;stroke-miterlimit:4;stroke-dasharray:none;stroke-opacity:1"
       d="m 142.26336,47.574846 h 25.07133"
       id="path929" />
    <path
       id="rect933"
       style="fill:#d62785;fill-opacity:1;stroke:#000000;stroke-width:3.21773;stroke-miterlimit:4;stroke-dasharray:none;stroke-opacity:1"
       d="m 179.55086,1.6108811 h 54.04662 l -0.009,109.8013489 h -54.04632 z"
       sodipodi:nodetypes="ccccc" />
  </g>
  <g
     inkscape:groupmode="layer"
     id="layer2"
     inkscape:label="Layer 2"
     transform="matrix(1.045736,0,0,1.045736,20.58151,27.600348)"
     style="display:inline">
    <g
       id="g885"
       style="opacity:1">
      <path
         style="color:#000000;font-style:normal;font-variant:normal;font-weight:normal;font-stretch:normal;font-size:50.8px;line-height:1.25;font-family:'Giulio No2';-inkscape-font-specification:'Giulio No2';font-variant-ligatures:normal;font-variant-position:normal;font-variant-caps:normal;font-variant-numeric:normal;font-variant-alternates:normal;font-variant-east-asian:normal;font-feature-settings:normal;font-variation-settings:normal;text-indent:0;text-align:start;text-decoration:none;text-decoration-line:none;text-decoration-style:solid;text-decoration-color:#000000;letter-spacing:normal;word-spacing:normal;text-transform:none;writing-mode:lr-tb;direction:ltr;text-orientation:mixed;dominant-baseline:auto;baseline-shift:baseline;text-anchor:start;white-space:normal;shape-padding:0;shape-margin:0;inline-size:0;clip-rule:nonzero;display:inline;overflow:visible;visibility:visible;isolation:auto;mix-blend-mode:normal;color-interpolation:sRGB;color-interpolation-filters:linearRGB;solid-color:#000000;solid-opacity:1;vector-effect:none;fill:#000000;fill-opacity:1;fill-rule:nonzero;stroke:none;stroke-width:3.977;stroke-linecap:butt;stroke-linejoin:miter;stroke-miterlimit:4;stroke-dasharray:none;stroke-dashoffset:0;stroke-opacity:1;color-rendering:auto;image-rendering:auto;shape-rendering:auto;text-rendering:auto;enable-background:accumulate;stop-color:#000000;stop-opacity:1"
         d="m 231.15116,11.767459 c -0.20335,0.204264 -31.23323,27.407941 -31.48387,27.622085 -0.20639,0.176355 -0.4335,0.385296 -0.68109,0.627353 -0.26538,0.22674 -0.53791,0.459843 -0.81804,0.69918 -0.0737,0.06299 -0.14161,0.105688 -0.20361,0.128159 -0.18302,0.09533 -0.34279,0.03387 -0.47955,-0.185002 l -2.6355,-6.47764 1.70274,-1.454693 -1.5441,-2.846853 -1.81332,1.54926 -2.20193,-5.383136 -2.02314,2.506824 1.83658,4.917014 c -0.91257,5.115848 -2.76955,7.331289 -6.63783,10.949201 l -1.97663,-5.154723 -2.59002,-6.80062 -2.39779,2.172994 1.40457,3.68763 1.02836,2.626196 1.12655,2.803964 1.12241,2.842205 c -1.91519,0.671121 -3.6997,1.851297 -5.36298,2.969844 -0.15035,-0.111368 -0.27163,-0.187653 -0.36432,-0.228928 -0.37898,-0.246486 -0.7235,-0.433242 -1.03353,-0.560173 -0.30691,-0.158864 -0.61128,-0.260906 -0.91312,-0.30644 -0.30184,-0.04554 -0.60867,-0.04356 -0.91984,0.0067 -0.32559,0.03275 -0.69628,0.117498 -1.1126,0.254248 -0.79758,0.244674 -1.53432,0.77768 -2.21072,1.598354 -0.67639,0.820668 -1.17053,1.917094 -1.48156,3.289204 -0.0868,0.394534 -0.14291,0.808054 -0.16898,1.240751 -0.0229,0.400759 -0.0156,0.820435 0.0222,1.259353 0.12168,1.398153 0.39113,2.601203 0.80874,3.609083 0.40321,0.990354 0.9051,1.796809 1.50534,2.41949 0.60334,0.590746 1.28048,1.003282 2.0314,1.23765 0.76843,0.219959 1.57144,0.250082 2.40915,0.08992 0.6574,-0.129376 1.26343,-0.392819 1.81798,-0.790133 0.58648,-0.394203 1.07934,-0.902438 1.47846,-1.524455 0.41666,-0.636429 0.73081,-1.37949 0.94258,-2.229321 0.22933,-0.864243 0.31387,-1.815021 0.25373,-2.852539 -0.053,-0.778918 -0.17049,-1.475635 -0.35243,-2.089796 -0.18195,-0.614159 -0.42505,-1.177576 -0.72967,-1.690851 0.98303,-1.557489 2.63914,-2.40414 4.11499,-3.440618 l 0.35915,0.806669 0.077,0.158131 c 0.0113,0.03888 0.028,0.09691 0.0506,0.174665 0.0257,0.05266 0.0518,0.105481 0.0775,0.158131 0.1768,0.393686 0.35456,0.844489 0.5333,1.352372 0.19627,0.496552 0.43943,1.135743 0.72916,1.91823 0.49417,1.343019 0.92762,2.459939 1.30069,3.350183 0.37619,0.865137 0.70533,1.587069 0.98806,2.166276 0.46575,0.922684 0.86362,1.681954 1.19269,2.27738 0.32907,0.595426 0.62238,1.086559 0.88057,1.473811 0.29012,0.389699 0.55756,0.70168 0.80253,0.935861 0.24496,0.23418 0.50754,0.457171 0.78755,0.668692 0.75359,0.551913 1.57569,0.747966 2.466,0.588079 0.90785,-0.171218 1.68676,-0.732362 2.33681,-1.683619 0.22084,-0.350557 0.4575,-0.826735 0.70951,-1.428337 0.1632,-0.405659 0.29509,-0.756806 0.39636,-1.053166 0.10128,-0.29636 0.17086,-0.595334 0.20826,-0.896586 0.0693,-0.298804 0.10273,-0.63174 0.0997,-0.999421 0.0117,-0.353906 0.002,-0.798205 -0.0279,-1.332735 -0.0191,-0.495652 -0.0476,-0.915882 -0.0853,-1.260906 -0.0203,-0.356352 -0.0469,-0.662356 -0.0796,-0.91829 -0.0183,-0.24216 -0.0483,-0.453964 -0.0904,-0.634587 -0.0245,-0.191953 -0.0649,-0.384895 -0.12144,-0.579292 -0.67133,-2.382988 -1.70941,-4.148069 -3.11454,-5.294768 -1.40201,-1.171805 -3.26579,-1.871858 -5.59087,-2.100646 -0.62119,-0.06026 -0.7365,0.05461 -1.27124,0.077 2.53436,-2.067827 5.78021,-5.766423 6.37377,-8.970509 0.84472,1.740265 1.35558,2.798509 2.26859,4.434869 0.88966,1.650909 2.15561,2.171678 3.7977,1.562179 0.18607,-0.06742 0.34532,-0.15793 0.47801,-0.271301 l 31.8983,-29.119155 z m -69.43556,30.20074 c -0.53972,-0.01331 -1.06937,0.106045 -1.58956,0.3576 -0.67608,0.320993 -1.48231,0.983589 -2.41846,1.988508 -0.26909,0.280053 -0.53234,0.58516 -0.79013,0.914672 -0.25779,0.329515 -0.5573,0.751684 -0.89762,1.26659 -0.50738,0.740426 -0.96972,1.517491 -1.38752,2.331125 -0.85001,1.609743 -1.44927,3.042263 -1.7973,4.297928 -0.36223,1.238142 -0.54037,2.32478 -0.53537,3.260268 0.007,1.580435 0.28968,2.817267 0.84749,3.709849 0.5434,0.87506 1.37635,1.512052 2.49804,1.911512 0.23485,0.07124 0.46375,0.117737 0.6873,0.139525 0.55421,0.102365 0.99845,0.17821 1.33222,0.226862 0.33378,0.04865 0.63547,0.094 0.90537,0.136424 0.2699,0.04242 0.5716,0.08778 0.90537,0.136427 0.33377,0.04864 0.78683,0.117206 1.35857,0.205156 0.23797,0.0393 0.45125,0.08426 0.63976,0.134874 1.54931,0.312174 2.51624,0.809091 2.90111,1.491382 0.38798,0.650357 0.25446,1.524231 -0.40049,2.621029 -0.11448,0.182282 -0.25054,0.337966 -0.40825,0.467672 -5.44998,5.683668 -19.44118,17.849115 -19.44118,17.849115 l 1.65822,2.728955 17.98244,-16.423802 c 0.70096,-0.576482 1.21107,-1.010375 1.52962,-1.301729 0.33607,-0.305765 0.61238,-0.577088 0.82889,-0.813903 h 5.3e-4 c 0.75469,-0.796925 1.27154,-1.632834 1.55029,-2.508374 0.28188,-0.907479 0.36548,-1.769846 0.25167,-2.586922 -0.0963,-0.83149 -0.39322,-1.586212 -0.89142,-2.263428 -0.49509,-0.709155 -1.14227,-1.263706 -1.94149,-1.663981 -0.37079,-0.165089 -0.69703,-0.293627 -0.97823,-0.385508 -0.29561,-0.109403 -0.57811,-0.184955 -0.84801,-0.227375 -0.49346,-0.06421 -0.96213,-0.134308 -1.40612,-0.209807 -0.45841,-0.09302 -0.87039,-0.16528 -1.2361,-0.21704 -0.41206,-0.07239 -0.80843,-0.143111 -1.18856,-0.212392 -0.17409,-0.03308 -0.34835,-0.06664 -0.52244,-0.09973 -0.15968,-0.01558 -0.34226,-0.04133 -0.54829,-0.07752 -0.18851,-0.05061 -0.39296,-0.102859 -0.6134,-0.156578 -0.44399,-0.07551 -0.80351,-0.190997 -1.07849,-0.34675 -0.28939,-0.173278 -0.50865,-0.403891 -0.65784,-0.692464 -0.14917,-0.288573 -0.23395,-0.659779 -0.25425,-1.11311 -0.003,-0.467744 0.0443,-1.035191 0.1416,-1.70274 0.058,-0.429582 0.22509,-1.066355 0.50074,-1.909961 0.27875,-0.87554 0.67268,-1.860539 1.18236,-2.955374 0.0681,-0.202917 0.1594,-0.395978 0.27388,-0.57826 0.10007,-0.199803 0.19139,-0.392348 0.27389,-0.577742 l 0.0527,-0.04289 c 0.0939,-0.135932 0.19816,-0.295209 0.31264,-0.477491 0.11137,-0.150344 0.224,-0.316397 0.33848,-0.498676 0.10007,-0.199805 0.22513,-0.405394 0.37466,-0.6165 0.22897,-0.364564 0.54007,-0.664536 0.93379,-0.900203 0.25663,-0.15231 0.50677,-0.152643 0.74983,0 0.24615,0.120703 0.41292,0.395068 0.50022,0.822688 0.0955,0.509016 0.17163,1.048213 0.22893,1.61799 0.0604,0.53784 0.086,1.104665 0.076,1.700155 -0.001,0.177204 -0.009,0.345712 -0.0248,0.505394 0.002,0.145269 -0.004,0.281532 -0.016,0.409278 -0.0127,0.127744 -0.0175,0.264525 -0.0155,0.409795 l -0.0346,3.333644 0.0104,0.387575 0.0274,1.211813 3.18068,-2.615862 c -0.005,-0.113334 -0.009,-0.242821 -0.0108,-0.38809 -0.0195,-0.130858 -0.03,-0.268658 -0.032,-0.413928 l 0.003,-0.531752 c -0.0199,-0.95301 -0.0339,-1.720074 -0.0419,-2.30115 -0.005,-0.613013 -0.0148,-1.089374 -0.03,-1.429371 0.002,-0.35441 0.004,-0.620163 0.005,-0.797367 -0.0133,-0.194728 -0.0296,-0.357484 -0.0491,-0.488342 l -0.0677,-0.29714 -0.23358,-1.569929 c -0.20618,-1.35803 -0.47479,-2.327574 -0.80511,-2.907834 -0.31282,-0.594672 -0.74865,-0.999731 -1.30794,-1.21543 -0.18207,-0.03386 -0.36321,-0.05293 -0.54312,-0.05736 z m 25.1008,6.916372 c 0.092,-0.0021 0.18419,-0.0024 0.27646,0 0.61517,0.01545 1.23677,0.130244 1.86501,0.344683 1.00831,0.317995 1.90553,0.880933 2.69182,1.688786 0.18421,0.204181 0.36567,0.433421 0.54364,0.687813 0.16357,0.240617 0.32071,0.531778 0.4718,0.872816 0.15421,0.315928 0.30062,0.694396 0.43925,1.135845 0.15303,0.455229 0.29818,0.973161 0.43564,1.553911 0.30879,1.278136 0.3867,2.728775 0.23357,4.351674 -0.0105,0.214609 -0.0371,0.428106 -0.0796,0.64027 l -0.25476,1.272792 c -0.0312,0.251042 -0.15078,0.50175 -0.35915,0.75189 -0.15579,0.216149 -0.40209,0.317505 -0.73898,0.304374 -0.30495,-0.01069 -0.57147,-0.138446 -0.79891,-0.383955 -0.14097,-0.162857 -0.27291,-0.331724 -0.39636,-0.505913 -0.12345,-0.174186 -0.26231,-0.418909 -0.41651,-0.734838 -0.13981,-0.302157 -0.31642,-0.6961 -0.5302,-1.181325 -0.19939,-0.471447 -0.45292,-1.092811 -0.76017,-1.863968 l -2.35541,-5.958292 -0.49919,-1.236099 -0.5917,-1.660882 c 0.2733,-0.04678 0.5478,-0.07312 0.82373,-0.07958 z m -14.52005,3.365169 c 0.0226,0.09892 0.0539,0.19041 0.0941,0.274918 0.0401,0.08451 0.0788,0.185346 0.11576,0.301792 0.37864,0.746165 0.80677,1.230805 1.28467,1.454692 0.49542,0.209474 1.10857,0.204997 1.83917,-0.01394 0.19784,-0.0452 0.34756,-0.09533 0.44958,-0.14986 0.29332,0.463812 0.48796,0.950325 0.58343,1.459341 0.11301,0.494604 0.11901,1.091621 0.0186,1.791105 -0.0798,0.653137 -0.21064,1.172329 -0.39326,1.557528 -0.1682,0.402722 -0.3945,0.735343 -0.67799,0.997871 -0.26598,0.248118 -0.54865,0.422195 -0.84853,0.521933 -0.29987,0.09974 -0.60095,0.126666 -0.90278,0.08113 -0.30184,-0.04553 -0.57972,-0.169452 -0.83406,-0.371554 -0.28628,-0.205213 -0.53572,-0.455025 -0.7488,-0.749824 -0.20995,-0.326734 -0.44093,-0.768472 -0.69298,-1.324983 -0.10592,-0.236003 -0.18737,-0.477718 -0.24391,-0.725022 -0.0709,-0.264824 -0.12281,-0.559631 -0.15554,-0.885216 -0.0839,-0.959234 -0.0293,-1.767996 0.16381,-2.426208 0.17868,-0.675738 0.49511,-1.273707 0.94878,-1.79369 z"
         id="path887" />
      <path
         id="path889"
         style="color:#000000;font-style:normal;font-variant:normal;font-weight:normal;font-stretch:normal;font-size:50.8px;line-height:1.25;font-family:'Giulio No2';-inkscape-font-specification:'Giulio No2';font-variant-ligatures:normal;font-variant-position:normal;font-variant-caps:normal;font-variant-numeric:normal;font-variant-alternates:normal;font-variant-east-asian:normal;font-feature-settings:normal;font-variation-settings:normal;text-indent:0;text-align:start;text-decoration:none;text-decoration-line:none;text-decoration-style:solid;text-decoration-color:#000000;letter-spacing:normal;word-spacing:normal;text-transform:none;writing-mode:lr-tb;direction:ltr;text-orientation:mixed;dominant-baseline:auto;baseline-shift:baseline;text-anchor:start;white-space:normal;shape-padding:0;shape-margin:0;inline-size:0;clip-rule:nonzero;display:inline;overflow:visible;visibility:visible;isolation:auto;mix-blend-mode:normal;color-interpolation:sRGB;color-interpolation-filters:linearRGB;solid-color:#000000;solid-opacity:1;vector-effect:none;fill:#000000;fill-opacity:1;fill-rule:nonzero;stroke:none;stroke-width:15.0312;stroke-linecap:butt;stroke-linejoin:miter;stroke-miterlimit:4;stroke-dasharray:none;stroke-dashoffset:0;stroke-opacity:1;color-rendering:auto;image-rendering:auto;shape-rendering:auto;text-rendering:auto;enable-background:accumulate;stop-color:#000000;stop-opacity:1"
         d="m 870.80664,177.12695 -13.43555,13.48633 c -0.0514,0.0461 -0.10813,0.0947 -0.19921,0.17578 -0.23282,0.20694 -0.5779,0.52103 -1.0254,0.91602 -0.89499,0.78998 -2.19262,1.93111 -3.83203,3.37304 -3.27881,2.88387 -7.92834,6.96829 -13.48633,11.84766 -11.11593,9.75874 -25.87803,22.70575 -40.64453,35.65625 -14.76646,12.9505 -29.53435,25.90349 -40.67382,35.66797 -5.56978,4.88223 -10.23309,8.9658 -13.53125,11.85547 -3.08206,2.7003 -5.14922,4.50051 -4.93946,4.32617 l -2.85351,-7.02344 5.12695,-4.38086 v -6.00195 l -13.16797,-24.26367 -6.00976,5.1289 -9.20508,-22.5 -18.32227,22.71485 v 6.00195 l 6.77539,18.14258 c -2.6135,9.92145 -7.1943,16.34469 -13.6914,23.23242 l -3.14453,-8.19336 -13.70118,-35.98047 -21.01562,19.05274 v 6.00195 l 7.14453,18.76563 3.91211,9.98632 3.94726,9.83008 c -3.17447,1.65143 -6.17801,3.36195 -8.98046,5.20703 -0.59883,-0.31336 -1.19185,-0.71183 -1.80274,-0.97461 -1.73718,-0.87475 -3.60106,-1.5417 -5.56445,-1.83789 -1.85208,-0.27942 -3.75038,-0.2431 -5.60352,0.0371 -1.82623,0.2061 -3.61321,0.62139 -5.44726,1.21875 -4.67898,1.44781 -8.67497,4.49902 -11.90821,8.42188 -2.97596,3.61078 -4.894,8.08984 -6.28906,13.00781 -0.0514,-2.58167 -0.10157,-5.07309 -0.125,-6.77734 v -0.0449 c -0.0189,-2.1826 -0.0609,-3.85969 -0.11719,-5.25585 v -0.0293 c 0.008,-1.31287 0.0177,-2.30523 0.0215,-2.98242 v -0.27149 l -0.0156,-0.28125 c -0.0593,-0.86843 -0.13245,-1.65412 -0.25,-2.44336 l -0.0449,-0.28125 -0.25781,-1.12109 -0.8418,-5.66211 v -0.008 c -0.83815,-5.52052 -1.78677,-9.69789 -3.91211,-13.47266 -1.87521,-3.49632 -5.00535,-6.53894 -8.79883,-8.00195 l -0.65039,-0.24219 -0.67968,-0.13281 c -1.0704,-0.19907 -2.15374,-0.31312 -3.24024,-0.33985 h -0.008 c -3.25535,-0.0803 -6.50719,0.68285 -9.42578,2.08789 -4.06318,1.9332 -7.50786,4.99781 -11.36914,9.13868 -1.19312,1.24523 -2.3367,2.5709 -3.43946,3.98047 -1.15203,1.4726 -2.38099,3.21022 -3.74218,5.26953 -10e-4,0.002 10e-4,0.006 0,0.008 -2.06366,3.02112 -3.94559,6.18141 -5.64063,9.47851 -3.37058,6.38795 -5.83797,12.21534 -7.35156,17.65821 -1.50437,5.15573 -2.3416,9.91324 -2.31836,14.41601 v 6.00196 c 0.0302,6.85207 1.19054,12.91493 4.34766,17.96679 3.00793,4.83357 7.79121,8.36033 13.29492,10.32032 l 0.16992,0.0586 0.16992,0.0527 c 1.17403,0.35614 2.37527,0.61305 3.59961,0.76172 2.04385,0.37574 3.75288,0.66913 5.125,0.86914 1.2415,0.18097 2.3607,0.34744 3.34375,0.50196 1.05691,0.16611 2.22419,0.34444 3.50586,0.53125 1.22453,0.17843 2.92088,0.43664 5.07227,0.76758 0.65733,0.11126 1.2192,0.23299 1.61718,0.33984 l 0.22852,0.0586 0.22852,0.0527 c 0.8394,0.16913 1.5425,0.35957 2.18554,0.55468 -21.02057,21.45077 -71.19726,65.17383 -71.19726,65.17383 l -4.78321,4.16211 v 5.99414 l 14.30469,23.54102 74.60156,-68.14258 0.11133,-0.0957 c 2.49003,-2.05245 4.42541,-3.68306 5.76563,-4.90821 l 0.0137,-0.0156 c 0.43204,-0.39329 0.73563,-0.7315 1.13086,-1.10742 h 0.16992 l 2.2207,-2.34766 c 0.008,-0.007 0.008,-0.0147 0.0156,-0.0215 0.0227,-0.0234 0.053,-0.0509 0.0742,-0.0742 l -0.0449,0.0156 c 3.44572,-3.65581 6.08198,-7.7637 7.52149,-12.28515 l 0.008,-0.0215 0.008,-0.0293 c 1.25488,-4.0399 1.72394,-8.17423 1.28907,-12.21484 0.0568,-0.53926 0.098,-1.0784 0.125,-1.61719 2.46784,2.01226 5.09695,3.81957 8.10937,4.75977 l 0.0801,0.0215 0.0898,0.0234 c 4.06152,1.16259 8.37895,1.30629 12.58594,0.50195 l 0.0215,-0.008 h 0.0156 c 3.48329,-0.68551 6.78415,-2.149 9.68555,-4.20703 3.03258,-2.05708 5.62514,-4.73068 7.625,-7.83984 2.07243,-3.17452 3.56266,-6.76166 4.5332,-10.63086 1.08968,-4.13029 1.45263,-8.51369 1.1875,-13.08789 v -0.0371 -0.0371 c -0.004,-0.0655 -0.0129,-0.12799 -0.0176,-0.19336 0.12263,-1.87502 0.13046,-3.78695 0.0176,-5.73438 v -0.0371 -0.0371 c -0.18683,-2.74389 -0.57165,-5.33459 -1.17188,-7.79492 0.52137,-0.51281 1.08626,-1.02612 1.77735,-1.52734 0.14135,0.38161 0.27051,0.64065 0.41406,1.04883 l 0.0508,0.13281 0.0527,0.13281 c 0.71138,1.79971 1.61101,4.17839 2.69336,7.10157 v -0.0156 c 1.89324,5.14528 3.5611,9.45318 5.03515,12.9707 l 0.0234,0.043 0.0137,0.0527 c 1.45138,3.33779 2.73709,6.14532 3.87695,8.48046 l 0.0215,0.0449 0.0234,0.0527 c 1.78877,3.54374 3.33104,6.47647 4.64257,8.84961 1.31195,2.37386 2.50103,4.38742 3.64649,6.10547 l 0.11133,0.16211 0.11718,0.1543 c 1.2703,1.7063 2.50821,3.18142 3.86915,4.48242 1.1424,1.09211 2.35642,2.12317 3.63867,3.09179 l 0.0449,0.0371 0.043,0.0293 c 4.2658,3.12419 9.88063,4.49409 15.08984,3.55859 l 0.0293,-0.008 0.0391,-0.008 c 5.60066,-1.05627 10.38267,-4.74025 13.64063,-9.50781 l 0.082,-0.10938 0.0723,-0.11914 c 1.17997,-1.8731 2.2016,-3.9871 3.25586,-6.50391 l 0.0234,-0.0508 0.0156,-0.0449 c 0.65404,-1.6257 1.19767,-3.06491 1.63867,-4.35547 0.48997,-1.43373 0.80765,-2.92135 1.02539,-4.42187 0.36397,-1.6792 0.53881,-3.38582 0.53125,-5.12891 0.0373,-1.30256 0.008,-2.75042 -0.0586,-4.32031 0.0365,-0.55828 0.0611,-1.11715 0.0586,-1.68164 0.0461,-1.62742 0.011,-3.40582 -0.10352,-5.47852 -0.0711,-1.80172 -0.17795,-3.36369 -0.32422,-4.79687 l -0.0137,-0.14844 c -0.0745,-1.26839 -0.17026,-2.39895 -0.29687,-3.46289 l -0.006,-0.0586 c -0.0813,-1.05034 -0.2337,-2.06412 -0.45117,-3.0918 -0.14287,-0.98044 -0.33085,-1.95636 -0.60547,-2.91016 l -0.008,-0.0137 c -2.82119,-10.00516 -7.41215,-18.18894 -14.23242,-23.76172 -3.11664,-2.59472 -6.77132,-4.47591 -10.72265,-5.93945 1.64595,-1.96165 3.20468,-3.99921 4.63281,-6.30078 0.51103,0.94615 0.85994,1.78057 1.43945,2.82031 0.003,0.005 0.004,0.0107 0.008,0.0156 2.23064,4.13373 5.46283,7.71214 9.86133,9.52148 4.39404,1.80749 9.34385,1.45854 13.68555,-0.14648 1.42745,-0.52084 2.85671,-1.29634 4.10547,-2.36329 l 0.0879,-0.0801 122.98242,-112.26563 1.21289,-32.36719 -0.23437,0.23438 z m -213.02734,154.05274 1.04101,0.56836 c -0.30803,-0.20047 -0.61592,-0.30784 -0.92187,-0.4961 -0.0522,-0.0238 -0.0655,-0.0482 -0.11914,-0.0723 z m -65.42774,17.45703 -0.13086,12.3125 0.043,1.5957 0.002,0.10742 -0.0449,4.29883 0.0371,1.34571 c -0.43125,-0.0819 -0.86449,-0.16203 -1.30664,-0.2461 l -0.33203,-0.0664 -0.33984,-0.0371 c -0.32277,-0.0314 -0.80365,-0.0987 -1.35157,-0.19141 -0.63836,-0.16793 -1.28409,-0.33721 -1.99218,-0.50977 l -0.25977,-0.0664 -0.25781,-0.043 c -0.38772,-0.0659 -0.62241,-0.12457 -0.79297,-0.17578 0.0995,-0.71685 0.61448,-2.90998 1.58203,-5.8711 l 0.008,-0.0215 0.008,-0.0293 c 0.92693,-2.9114 2.29536,-6.35972 4.11914,-10.27734 l 0.17773,-0.38281 0.14063,-0.39844 c 0.0703,-0.20924 0.15476,-0.39499 0.27343,-0.58399 l 0.19141,-0.30273 0.16211,-0.32422 c 0.0227,-0.0452 0.0432,-0.0885 0.0644,-0.13281 z m 114.41211,5.6875 c 0.36396,0.2572 0.72046,0.54743 1.06445,0.89844 0.40948,0.46526 0.84137,0.99506 1.28516,1.62304 0.004,0.007 0.003,0.0147 0.008,0.0215 0.29103,0.43033 0.6942,1.12628 1.1211,2.08984 l 0.0527,0.13281 0.0664,0.125 c 0.36737,0.75293 0.80158,1.85121 1.24023,3.24805 l 0.0215,0.0664 0.0234,0.0742 c 0.48715,1.44911 0.98385,3.19531 1.46094,5.21093 v 0.0156 l 0.008,0.0156 c 0.25153,1.0411 0.36253,2.24426 0.42774,3.50196 -0.51724,-1.25661 -0.96571,-2.33759 -1.63281,-4.01172 l -0.008,-0.0156 z m -89.11133,13.73437 c 0.0265,0.75823 -0.0309,1.4954 0.0371,2.26563 v 0.008 c 0.15564,1.7883 0.41207,3.48995 0.74024,5.13086 -0.65164,-0.63253 -1.33332,-1.22554 -2.15821,-1.63867 l -0.15429,-0.082 -0.1543,-0.0664 c -1.22504,-0.54543 -2.35985,-0.98745 -3.4668,-1.38086 z m 27.77539,2.29102 c 1.03421,0.24064 2.07623,0.37071 3.11915,0.39453 -0.0447,0.12652 -0.0904,0.25358 -0.1211,0.31836 l -0.082,0.15625 -0.0664,0.16992 c -0.27893,0.66797 -0.51806,0.95367 -0.73046,1.15039 l -0.0156,0.008 -0.008,0.008 c -0.23244,0.21668 -0.24604,0.20096 -0.30274,0.22851 -0.35641,-0.26075 -0.65914,-0.58098 -0.96679,-0.98242 -0.22988,-0.36929 -0.51292,-0.86072 -0.82618,-1.45117 z"
         transform="matrix(0.26458333,0,0,0.26458333,2.929311,-41.690777)"
         sodipodi:nodetypes="cccssssssccccccccccccccccccccsccscccccccccccccccccccccscccccccccccssscccccccccccccccccccccccccccccccccccccccccccccccccccccscccsccccccccccccscccccccccccccccccsccccccccccscccccccccccccccccccccccccccccccccccccccccccccccccccccccccccccccc" />
    </g>
    <g
       id="g891"
       style="opacity:1"
       transform="translate(-31.750001)" />
    <path
       id="path29"
       style="font-style:normal;font-variant:normal;font-weight:normal;font-stretch:normal;font-size:50.8px;line-height:1.25;font-family:'Giulio No2';-inkscape-font-specification:'Giulio No2';fill:#ffffff;stroke-width:0.669959"
       d="m 982.57227,196.04688 c -0.76856,0.77202 -118.04684,103.58907 -118.99415,104.39843 -0.78007,0.66654 -1.63844,1.45624 -2.57421,2.3711 -1.00301,0.85697 -2.03304,1.73799 -3.0918,2.64257 -0.27867,0.23806 -0.5352,0.39945 -0.76953,0.48438 -0.69173,0.36031 -1.29561,0.12801 -1.8125,-0.69922 l -9.96094,-24.48242 6.43555,-5.49805 -5.83594,-10.75976 -6.85352,5.85547 -8.32226,-20.34571 -7.64649,9.47461 6.94141,18.58399 C 826.63881,297.40776 819.6203,305.78108 805,319.45508 l -7.4707,-19.48242 -9.78907,-25.70313 -9.0625,8.21289 5.3086,13.9375 3.88672,9.92578 4.25781,10.59766 4.24219,10.74219 c -7.23851,2.53652 -13.98311,6.99703 -20.26953,11.22461 -0.56824,-0.42092 -1.02662,-0.70924 -1.37696,-0.86524 -1.43234,-0.9316 -2.73449,-1.63745 -3.90625,-2.11719 -1.15998,-0.60043 -2.31036,-0.9861 -3.45117,-1.1582 -1.14081,-0.17212 -2.30047,-0.16463 -3.47656,0.0254 -1.23057,0.12379 -2.63159,0.44409 -4.20508,0.96094 -3.0145,0.92475 -5.799,2.93926 -8.35547,6.04102 -2.55647,3.10174 -4.42407,7.24571 -5.59961,12.43164 -0.32799,1.49115 -0.54015,3.05406 -0.63867,4.68945 -0.0867,1.51468 -0.0589,3.10086 0.084,4.75976 0.45987,5.28436 1.47826,9.83132 3.05665,13.64063 1.52392,3.74307 3.42085,6.79109 5.68945,9.14453 2.28034,2.23274 4.83963,3.79193 7.67773,4.67773 2.90432,0.83134 5.93931,0.94519 9.10547,0.33985 2.48464,-0.48898 4.77516,-1.48467 6.87109,-2.98633 2.21662,-1.4899 4.07939,-3.41079 5.5879,-5.76172 1.57475,-2.4054 2.76209,-5.21382 3.5625,-8.42578 0.86674,-3.26643 1.18626,-6.85992 0.95898,-10.78125 -0.20052,-2.94394 -0.64436,-5.5772 -1.33203,-7.89844 -0.68767,-2.32123 -1.60649,-4.45068 -2.75781,-6.39062 3.7154,-5.88657 9.97472,-9.08651 15.55273,-13.00391 l 1.35742,3.04883 0.29102,0.59766 c 0.0427,0.14694 0.10599,0.36626 0.1914,0.66015 0.0971,0.19902 0.19584,0.39867 0.29297,0.59766 0.66822,1.48795 1.34008,3.19177 2.01563,5.11133 0.74181,1.87673 1.66081,4.29257 2.75586,7.25 1.86773,5.07598 3.50598,9.29741 4.91601,12.66211 1.42182,3.26981 2.66579,5.99837 3.73438,8.1875 1.76031,3.48731 3.26408,6.35699 4.50781,8.60742 1.24373,2.25043 2.35229,4.10668 3.32813,5.57031 1.09655,1.47288 2.10733,2.65202 3.0332,3.53711 0.92583,0.88509 1.91826,1.72789 2.97656,2.52734 2.84822,2.08597 5.95536,2.82696 9.32031,2.22266 3.43125,-0.64712 6.37517,-2.76798 8.83203,-6.36328 0.83468,-1.32494 1.72917,-3.12467 2.68165,-5.39844 0.61681,-1.5332 1.11529,-2.86037 1.49804,-3.98047 0.38279,-1.1201 0.64576,-2.25008 0.78711,-3.38867 0.26192,-1.12934 0.38827,-2.38768 0.37696,-3.77734 0.0442,-1.3376 0.009,-3.01684 -0.10547,-5.03711 -0.0722,-1.87333 -0.17978,-3.4616 -0.32227,-4.76563 -0.0767,-1.34684 -0.17719,-2.50339 -0.30078,-3.4707 -0.0692,-0.91525 -0.18268,-1.71577 -0.3418,-2.39844 -0.0925,-0.72549 -0.24544,-1.45472 -0.45898,-2.18945 -2.53731,-9.00657 -6.46076,-15.67774 -11.77149,-20.01172 -5.29893,-4.42887 -12.34315,-7.07474 -21.13086,-7.93945 -2.3478,-0.22775 -2.78362,0.20639 -4.80468,0.29101 9.5787,-7.81541 21.84646,-21.79436 24.08984,-33.90429 3.19265,6.57738 5.12346,10.57704 8.57422,16.76171 3.36249,6.23966 8.14717,8.20792 14.35351,5.9043 0.70326,-0.25482 1.30514,-0.5969 1.80665,-1.02539 L 982.19531,206.0625 Z m -262.4336,114.14453 c -2.03989,-0.0503 -4.04173,0.4008 -6.00781,1.35156 -2.55523,1.2132 -5.60242,3.7175 -9.14063,7.51562 -1.01703,1.05847 -2.012,2.21163 -2.98632,3.45703 -0.97433,1.24541 -2.1063,2.84101 -3.39258,4.78711 -1.91766,2.79846 -3.66506,5.7354 -5.24414,8.81055 -3.21264,6.08407 -5.47758,11.49832 -6.79297,16.24414 -1.36906,4.67959 -2.04234,8.78657 -2.02344,12.32227 0.0272,5.9733 1.09487,10.64794 3.20313,14.02148 2.05379,3.30731 5.20194,5.71484 9.4414,7.22461 0.88762,0.26927 1.75275,0.44499 2.59766,0.52734 2.09465,0.38689 3.77366,0.67355 5.03515,0.85743 1.26154,0.18386 2.40179,0.35529 3.42188,0.51562 1.02009,0.16032 2.16038,0.33175 3.42188,0.51563 1.26149,0.18385 2.97385,0.44298 5.13476,0.77539 0.89941,0.14855 1.70549,0.31848 2.41797,0.50976 5.85566,1.17987 9.51022,3.05798 10.96484,5.63672 1.46638,2.45804 0.96173,5.76087 -1.51367,9.90625 -0.43268,0.68894 -0.9469,1.27735 -1.54297,1.76758 -20.59838,21.48158 -73.47851,67.46122 -73.47851,67.46122 l 6.26729,10.31417 67.96513,-62.07422 c 2.64933,-2.17883 4.57728,-3.81874 5.78125,-4.91992 1.27018,-1.15565 2.31451,-2.18112 3.13281,-3.07617 h 0.002 c 2.85238,-3.012 4.80584,-6.17134 5.85938,-9.48047 1.06537,-3.42984 1.38132,-6.68918 0.95117,-9.77734 -0.36393,-3.14264 -1.48618,-5.99513 -3.36914,-8.55469 -1.87121,-2.68027 -4.31722,-4.77621 -7.33789,-6.28906 -1.40141,-0.62396 -2.63446,-1.10977 -3.69727,-1.45704 -1.11726,-0.41349 -2.18498,-0.69904 -3.20507,-0.85937 -1.86505,-0.24267 -3.63638,-0.50762 -5.31446,-0.79297 -1.73257,-0.35159 -3.28966,-0.62468 -4.67187,-0.82031 -1.55739,-0.27361 -3.05548,-0.54089 -4.49219,-0.80274 -0.65798,-0.12502 -1.31663,-0.25188 -1.97461,-0.37695 -0.60351,-0.0589 -1.29357,-0.15619 -2.07226,-0.29297 -0.71248,-0.19128 -1.4852,-0.38876 -2.31836,-0.59179 -1.67808,-0.28538 -3.03688,-0.72188 -4.07618,-1.31055 -1.09375,-0.65491 -1.92246,-1.52652 -2.48632,-2.61719 -0.5638,-1.09067 -0.88422,-2.49365 -0.96094,-4.20703 -0.0105,-1.76785 0.16741,-3.91253 0.53516,-6.43555 0.21913,-1.62362 0.85075,-4.03032 1.89257,-7.21875 1.05355,-3.30913 2.5424,-7.03196 4.46875,-11.16992 0.2575,-0.76693 0.60248,-1.49661 1.03516,-2.18555 0.37822,-0.75516 0.72334,-1.48289 1.03516,-2.18359 l 0.19921,-0.16211 c 0.35471,-0.51376 0.74896,-1.11575 1.18165,-1.80469 0.42092,-0.56823 0.84661,-1.19583 1.27929,-1.88476 0.37822,-0.75517 0.85086,-1.5322 1.41602,-2.33008 0.8654,-1.37788 2.04122,-2.51163 3.52929,-3.40234 0.96994,-0.57566 1.91537,-0.57692 2.83399,0 0.93033,0.4562 1.56067,1.49317 1.89062,3.10937 0.3608,1.92384 0.64867,3.96175 0.86524,6.11524 0.22828,2.03278 0.3249,4.17511 0.28711,6.42578 -0.005,0.66975 -0.0352,1.30663 -0.0937,1.91015 0.008,0.54905 -0.0133,1.06406 -0.0606,1.54688 -0.048,0.48281 -0.0661,0.99978 -0.0586,1.54883 l -0.13086,12.5996 0.0391,1.46485 0.10352,4.58008 12.02148,-9.88672 c -0.0174,-0.42835 -0.0335,-0.91775 -0.041,-1.4668 -0.0737,-0.49458 -0.11353,-1.0154 -0.12109,-1.56445 l 0.0117,-2.00977 c -0.0752,-3.60193 -0.12797,-6.50107 -0.1582,-8.69726 -0.0181,-2.3169 -0.0558,-4.11732 -0.11328,-5.40235 0.008,-1.3395 0.0138,-2.34392 0.0176,-3.01367 -0.0503,-0.73598 -0.11184,-1.35112 -0.18554,-1.8457 l -0.25586,-1.12305 -0.88282,-5.93359 c -0.77926,-5.13271 -1.79447,-8.79713 -3.04296,-10.99024 -1.18228,-2.24758 -2.82951,-3.77851 -4.94336,-4.59375 -0.68817,-0.12798 -1.37277,-0.20004 -2.05274,-0.21679 z m 94.86914,26.14062 c 0.34763,-0.008 0.69617,-0.009 1.04492,0 2.32505,0.0584 4.67439,0.49226 7.04883,1.30274 3.81094,1.20187 7.20203,3.32951 10.17383,6.38281 0.69623,0.77171 1.38205,1.63813 2.05469,2.59961 0.61822,0.90942 1.21215,2.00987 1.7832,3.29883 0.58284,1.19406 1.1362,2.62449 1.66016,4.29296 0.57838,1.72055 1.12695,3.67809 1.64648,5.87305 1.16708,4.83075 1.46157,10.31348 0.88281,16.44727 -0.0397,0.81112 -0.14015,1.61804 -0.30078,2.41992 l -0.96289,4.81055 c -0.11781,0.94882 -0.56988,1.89638 -1.35742,2.84179 -0.58881,0.81694 -1.51968,1.20002 -2.79297,1.15039 -1.15257,-0.0404 -2.15991,-0.52326 -3.01953,-1.45117 -0.5328,-0.61552 -1.03146,-1.25376 -1.49805,-1.91211 -0.46658,-0.65834 -0.99139,-1.58328 -1.57421,-2.77734 -0.52842,-1.14201 -1.19589,-2.63093 -2.00391,-4.46485 -0.7536,-1.78185 -1.71179,-4.13031 -2.87305,-7.04492 l -8.90234,-22.51953 -1.88672,-4.67187 -2.23633,-6.27735 c 1.03293,-0.17679 2.0704,-0.27636 3.11328,-0.30078 z m -54.8789,12.71875 c 0.0854,0.37387 0.20378,0.71966 0.35547,1.03906 0.15167,0.3194 0.29765,0.70052 0.4375,1.14063 1.43107,2.82015 3.04923,4.65186 4.85546,5.49805 1.87246,0.79171 4.18985,0.77479 6.95118,-0.0527 0.74776,-0.17085 1.3136,-0.3603 1.69921,-0.5664 1.10862,1.75299 1.84424,3.59178 2.20508,5.51562 0.42711,1.86937 0.44981,4.12581 0.0703,6.76953 -0.30144,2.46855 -0.79613,4.43085 -1.48632,5.88672 -0.63574,1.5221 -1.49103,2.77925 -2.5625,3.77148 -1.00528,0.93777 -2.07365,1.5957 -3.20703,1.97266 -1.13338,0.37697 -2.2713,0.47874 -3.41211,0.30664 -1.14079,-0.17209 -2.19106,-0.64045 -3.15235,-1.4043 -1.082,-0.77561 -2.02476,-1.71978 -2.83008,-2.83398 -0.79352,-1.2349 -1.66652,-2.90446 -2.61914,-5.00781 -0.40035,-0.89198 -0.7082,-1.80555 -0.92187,-2.74024 -0.2681,-1.00091 -0.46418,-2.11514 -0.58789,-3.3457 -0.31688,-3.62545 -0.11069,-6.68219 0.61914,-9.16992 0.67532,-2.55397 1.87129,-4.81401 3.58594,-6.7793 z"
       transform="matrix(0.26458333,0,0,0.26458333,-28.82069,-41.690777)"
       sodipodi:nodetypes="cscsccccccccccccccccccccsccscccccccccccsccccccccccscsccccsccccccccccccccccsccscccccccsssccccccccccccccccccccccccscccccccccccccccccccccccccccccccccsscccccccccccccsccccccscsccccccccsscccccccss" />
  </g>
</svg>
